<?xml version="1.0" encoding="iso-8859-1"?>
<!-- Generator: Adobe Illustrator 18.0.0, SVG Export Plug-In . SVG Version: 6.00 Build 0)  -->
<!DOCTYPE svg PUBLIC "-//W3C//DTD SVG 1.1//EN" "http://www.w3.org/Graphics/SVG/1.1/DTD/svg11.dtd">
<svg version="1.1" id="Capa_1" xmlns="http://www.w3.org/2000/svg" xmlns:xlink="http://www.w3.org/1999/xlink" x="0px" y="0px"
	 viewBox="0 0 184.929 184.929" style="enable-background:new 0 0 184.929 184.929;" xml:space="preserve">
<g>
	<path d="M74.587,59.747c-3.548,1.857-6.382,4.471-8.819,7.568C56.15,77.413,53.389,93.554,58.69,106.7
		c7.646,18.961,32.33,26.316,50.117,18.209c18.032-8.221,24.441-30.947,16.393-48.359C116.549,57.835,92.846,50.192,74.587,59.747z
		 M119.32,71.203c2.868,3.739,4.838,7.938,5.957,12.305c-2.258,0.244-4.563,1.255-6.766,1.767c-2.633,0.613-5.279,0.942-7.936,1.338
		c-0.658-2.342-1.736-4.558-3.27-6.47c-1.383-1.726-3.144-3.178-5.119-4.321c1.741-4.694,4.068-9.135,5.653-13.887
		C112.28,64.092,116.235,67.182,119.32,71.203z M77.236,99.493c-3.184-5.988-1.605-13.899,2.49-19.342
		c3.482-2.43,6.667-4.355,11.103-4.642c4.644-0.3,9.637,1.423,13.084,4.487c7.343,6.525,6.481,18.699-0.456,24.957
		C95.471,112.159,82.03,108.511,77.236,99.493z M66.649,68.331c4.565-3.99,9.356-6.952,14.66-8.605
		c0.2,0.554,0.561,1.094,0.749,1.606c0.606,1.662,0.915,3.479,1.238,5.212c0.429,2.303,0.414,5.455,1.512,7.72
		c-2.474,1.047-4.66,2.747-6.285,5.183c-0.791,0.786-1.495,1.641-2.103,2.561c-2.377-0.872-4.926-1.288-7.317-2.212
		c-2.538-0.981-4.951-2.169-7.382-3.366C63.032,73.519,64.684,70.781,66.649,68.331z M93.563,58.28
		c4.717,0.277,9.338,1.395,13.555,3.325c-2.163,4.477-4.516,8.849-6.228,13.52c-4.549-2.219-9.993-2.849-14.668-1.383
		c-0.142-3.633-1.377-12.067-3.592-14.402C86.036,58.434,89.652,58.05,93.563,58.28z M61.197,77.648
		c1.992,1.488,4.388,2.51,6.663,3.439c2.153,0.878,5.231,2.386,7.782,2.206c-2.343,4.338-2.83,9.698-1.452,14.633
		c-2.7,0.718-5.329,1.796-7.916,2.826c-2.066,0.824-4.484,1.573-6.196,3.062C57.121,95.553,57.771,85.98,61.197,77.648z
		 M61.357,106.847c-0.29-0.591-0.552-1.193-0.801-1.802c2.508-0.512,4.906-1.919,7.279-2.806c2.311-0.862,4.666-1.653,6.827-2.829
		c0.158,0.434,0.317,0.868,0.505,1.292c1.614,3.626,4.406,6.289,7.738,7.985c-0.965,2.031-1.416,4.393-2.04,6.511
		c-0.745,2.532-1.676,5.09-2.306,7.666C71.236,119.666,64.943,114.153,61.357,106.847z M79.394,123.205
		c1.107-2.03,1.789-4.346,2.505-6.517c0.778-2.36,1.827-4.888,2.344-7.386c5.271,2.193,11.6,2.138,16.754-0.206
		c0.117,2.688,1.056,5.484,1.793,7.977c0.602,2.033,1.313,4.933,2.751,6.777C97.176,127.055,87.681,126.591,79.394,123.205z
		 M111.97,120.482c-1.552,1.067-3.178,1.972-4.857,2.723c-0.678-2.542-2.129-5.052-2.877-7.576
		c-0.699-2.364-1.037-4.904-1.839-7.243c0.497-0.28,0.984-0.578,1.451-0.905c2.706-1.896,4.686-4.524,5.93-7.484
		c3.749,2.995,9.527,5.224,14.025,5.646C121.434,111.487,117.46,116.707,111.97,120.482z M124.271,104.411
		c-2.271-1.338-4.864-2.098-7.317-3.033c-2.243-0.854-4.398-1.97-6.642-2.826c1.14-3.455,1.319-7.247,0.537-10.815
		c2.029,0.307,4.108-0.042,6.156-0.339c2.621-0.379,6.223-1.012,8.608-2.436C126.985,91.45,126.504,98.238,124.271,104.411z"/>
	<path d="M173.07,87.118c-9.341-4.182-18.846-8.522-28.601-11.688c-0.749-2.398-1.653-4.741-2.704-7.011
		c0.066-0.086,0.118-0.194,0.148-0.325c2.503-10.873,8.205-21.519,7.749-32.902c-0.022-0.563-0.577-1.094-1.166-0.888
		c-9.718,3.394-19.385,6.856-29.249,9.801c-1.74-0.927-3.55-1.755-5.428-2.474c-1.234-0.472-2.482-0.902-3.739-1.3
		c-0.022-0.052-0.027-0.102-0.063-0.155c-6.179-9.272-9.983-20.767-18.564-28.237c-0.41-0.357-1.208-0.398-1.469,0.189
		c-3.946,8.876-7.469,17.891-11.825,26.582c-3.195,0.736-6.307,1.773-9.295,3.112c-0.097-0.151-0.244-0.276-0.476-0.328
		c-9.93-2.248-19.433-6.035-29.372-8.24c-0.707-0.157-1.275,0.43-1.13,1.13c1.981,9.517,4.847,18.885,7.63,28.194
		c0.052,0.174,0.147,0.288,0.253,0.375c-2.28,3.838-4.093,7.977-5.442,12.299c-0.049,0.021-0.097,0.027-0.147,0.06
		c-8.452,5.676-17.738,9.969-26.165,15.682c-0.57,0.387-0.613,1.209,0,1.586c8.032,4.947,16.534,9.194,24.958,13.437
		c1.121,4.428,2.838,8.636,5.085,12.563c-2.163,9.16-5.654,17.941-7.709,27.131c-0.156,0.701,0.427,1.26,1.118,1.119
		c9.563-1.955,19.161-4.242,28.521-7.014c0.057-0.017,0.094-0.048,0.142-0.072c4.007,2.164,8.215,3.84,12.532,5.01
		c5.44,8.257,9.664,17.246,15.216,25.432c0.385,0.566,1.2,0.609,1.576,0c5.104-8.278,9.56-17.005,13.956-25.684
		c3.836-1.134,7.577-2.701,11.159-4.71c9.833,2.607,19.273,7.888,29.649,7.513c0.566-0.021,1.092-0.58,0.89-1.168
		c-3.194-9.292-5.724-19.034-9.956-27.928c1.812-3.58,3.22-7.371,4.216-11.289c9.215-6.052,20.505-9.871,27.887-18.355
		C173.608,88.159,173.647,87.378,173.07,87.118z M147.077,90.257c-0.061-1.368-0.171-2.731-0.327-4.088
		c2.524,0.844,4.335,2.614,4.3,5.598c-0.03,2.643-1.657,4.277-4.043,4.758C147.14,94.446,147.17,92.355,147.077,90.257z
		 M147.854,36.506c0.165,10.185-4.696,19.889-7.191,29.653c-0.936-1.807-1.964-3.561-3.087-5.248
		c2.437-2.872,1.489-7.54-0.494-10.418c-2.623-3.806-6.734-3.681-10.014-1.186c-1.796-1.458-3.699-2.794-5.703-3.996
		C130.42,43.41,139.222,39.75,147.854,36.506z M136.874,59.896c-2.431-3.478-5.261-6.661-8.46-9.451
		C134.168,46.915,138.062,54.363,136.874,59.896z M91.152,14.176c7.468,6.836,11.17,16.952,16.505,25.435
		c-1.823-0.502-3.666-0.916-5.517-1.257c-0.275-4.247-5-7.191-8.928-7.263c-3.77-0.069-5.702,3.036-5.538,6.298
		c-2.529,0.134-5.037,0.428-7.503,0.898C84.86,30.853,87.817,22.289,91.152,14.176z M100.234,38.033
		c-3.9-0.598-7.83-0.839-11.716-0.689c0.4-2.723,2.02-4.472,5.138-4.346C96.964,33.132,98.626,35.607,100.234,38.033z
		 M40.021,35.359c9.048,1.973,17.731,5.322,26.74,7.468c-2.267,1.151-4.452,2.488-6.533,4.019c-2.458-2.971-7.116-2.82-9.591,0.091
		c-2.127,2.501-2.665,6.75,0.424,8.686c-1.558,1.798-2.981,3.705-4.271,5.709C45.26,52.542,42.149,44.026,40.021,35.359z
		 M51.655,54.931c-0.615-0.614-1.13-1.534-1.331-2.285c-0.381-1.429,0.196-2.99,0.958-4.183c0.77-1.203,2.067-2.141,3.501-2.311
		c1.726-0.205,2.869,0.776,4.076,1.731c-2.279,1.81-4.42,3.866-6.397,6.174C52.19,54.345,51.92,54.636,51.655,54.931z M37.495,96.04
		c-1.814-1.07-3.094-2.694-3.002-4.98c0.085-2.08,1.64-3.344,3.366-4.16c-0.049,0.411-0.115,0.82-0.156,1.232
		C37.432,90.812,37.37,93.45,37.495,96.04z M16.221,91.717c7.519-5.132,15.766-9.09,23.402-14.045
		c-0.709,2.641-1.242,5.337-1.616,8.061c-2.39,0.438-4.284,2.247-4.873,4.722c-0.795,3.345,1.628,6.165,4.485,7.457
		c0.17,2.004,0.458,3.975,0.855,5.908C31.364,99.312,23.542,95.878,16.221,91.717z M38.431,144.734
		c1.799-8.166,4.803-16.007,6.854-24.11c1.119,1.759,2.352,3.453,3.685,5.081c-2.618,2.488-3.03,6.667,0.042,9.031
		c2.705,2.081,5.803,1.028,7.377-1.571c1.736,1.445,3.571,2.807,5.508,4.071c0.746,0.487,1.504,0.949,2.268,1.399
		C55.5,140.115,46.987,142.712,38.431,144.734z M55.149,132.102c-1.088,1.927-3.058,2.645-5.104,1.308
		c-2.552-1.666-1.705-4.705-0.376-6.86C51.343,128.509,53.176,130.361,55.149,132.102z M94.598,168
		c-4.964-7.273-8.826-15.23-13.554-22.654c2.223,0.503,4.467,0.88,6.724,1.116c1.132,3.321,3.844,5.638,7.536,5.316
		c2.602-0.228,5.765-2.622,5.496-5.464c2.113-0.27,4.214-0.658,6.292-1.175C102.48,152.469,98.892,160.48,94.598,168z
		 M89.076,146.578c3.337,0.271,6.691,0.253,10.022-0.07c-0.986,1.77-1.761,3.264-4.222,3.546
		C92.356,150.343,90.344,148.589,89.076,146.578z M148.921,145.486c-9.135,0.084-17.646-4.317-26.344-6.876
		c1.732-1.074,3.382-2.239,4.941-3.492c2.805,1.7,6.555,1.752,8.772-0.996c1.697-2.104,1.658-5.768-0.241-7.767
		c1.525-2,2.9-4.102,4.12-6.296C143.028,128.551,145.856,137.07,148.921,145.486z M134.978,127.713c0.6,1.608,1.002,3.16-0.31,4.786
		c-1.339,1.66-3.463,1.648-5.353,1.105C131.375,131.786,133.261,129.813,134.978,127.713z M119.22,137.783
		c-0.231,0.024-0.417,0.14-0.547,0.307c-7.286,3.968-15.545,6.269-24.013,6.497c-23.935,0.646-47.605-15.74-53.372-39.15
		c-4.105-16.662,0.291-35.974,11.253-49.501c9.593-9.194,20.706-15.224,34.143-16.157c11.239-0.78,23.477,2.043,33.309,7.508
		c19.955,11.089,28.23,37.017,23.554,58.478C140.491,119.791,131.217,131.066,119.22,137.783z M145.917,104.571
		c0.453-2.166,0.779-4.365,0.979-6.586c3.351,0.728,5.514-2.966,5.792-5.844c0.383-3.95-2.514-6.797-6.112-7.324
		c-0.349-2.507-0.86-4.981-1.525-7.408c8.595,3.78,17.358,7.205,26.011,10.85C164.311,95.64,154.339,99.343,145.917,104.571z"/>
	<path d="M60.433,60.651c0.553,0.431,1.13,0.827,1.879,0.759c1.15-0.104,2.146-0.705,2.47-1.88c0.2-0.729,0.074-1.396-0.266-1.943
		c-0.108-0.205-0.246-0.401-0.431-0.587c-0.696-0.695-1.562-0.813-2.489-0.658c-0.009,0.002-0.018,0.003-0.025,0.004
		C59.765,56.648,58.961,59.502,60.433,60.651z"/>
	<path d="M94.293,49.999c2.771,0,2.771-4.296,0-4.296S91.522,49.999,94.293,49.999z"/>
	<path d="M125.293,65.394c3.603,0,3.603-5.586,0-5.586S121.69,65.394,125.293,65.394z"/>
	<path d="M135.793,89.425c-1.459,0-2.676,1.217-2.676,2.676c0,1.459,1.217,2.676,2.676,2.676s2.676-1.217,2.676-2.676
		C138.468,90.642,137.252,89.425,135.793,89.425z"/>
	<path d="M127.038,120.312c-0.69-0.404-1.341-0.387-2.102-0.273c-0.024,0.004-0.049,0.006-0.074,0.01
		c-0.665,0.1-1.32,0.711-1.645,1.266c-0.497,0.848-0.497,1.93,0,2.777c0.881,1.502,3.093,1.848,4.322,0.557
		c0.017-0.018,0.033-0.035,0.05-0.053c0.847-0.889,1.058-2.227,0.427-3.305C127.773,120.88,127.447,120.556,127.038,120.312z"/>
	<path d="M93.574,134.103c-1.43,0-2.623,1.193-2.623,2.623c0,1.43,1.193,2.623,2.623,2.623c1.43,0,2.623-1.193,2.623-2.623
		C96.197,135.296,95.003,134.103,93.574,134.103z"/>
	<path d="M60.543,120.39c-1.342,0-2.461,1.119-2.461,2.461c0,1.342,1.119,2.461,2.461,2.461c1.342,0,2.461-1.119,2.461-2.461
		C63.003,121.509,61.884,120.39,60.543,120.39z"/>
	<path d="M47.293,87.405c-1.47,0-2.695,1.227-2.695,2.695c0,1.471,1.226,2.695,2.695,2.695s2.695-1.225,2.695-2.695
		C49.988,88.632,48.762,87.405,47.293,87.405z"/>
	<path d="M92.656,88.616c-1.495-0.877-3.475-0.354-4.349,1.141c-0.431,0.732-0.546,1.629-0.32,2.449
		c0.27,0.98,1.161,2.045,2.22,2.219c1.147,0.189,2.218,0.059,3.093-0.816C94.751,92.157,94.424,89.651,92.656,88.616z"/>
	<path d="M90.127,7.14c3.274,0,3.274-5.078,0-5.078S86.852,7.14,90.127,7.14z"/>
	<path d="M154.794,31.79c2.393,0,2.393-3.711,0-3.711C152.4,28.079,152.4,31.79,154.794,31.79z"/>
	<path d="M182.794,86.394c-2.847,0-2.847,4.414,0,4.414S185.64,86.394,182.794,86.394z"/>
	<path d="M153.46,153.316c-1.064,0-1.953,0.889-1.953,1.953c0,0.806,0.533,1.579,1.293,1.832c0.398,0.205,0.922,0.205,1.32,0
		c0.76-0.253,1.293-1.026,1.293-1.832C155.413,154.204,154.524,153.316,153.46,153.316z"/>
	<path d="M92.794,178.335c-2.922,0-2.922,4.531,0,4.531C95.715,182.866,95.715,178.335,92.794,178.335z"/>
	<path d="M28.794,153.081c-2.821,0-2.821,4.375,0,4.375S31.615,153.081,28.794,153.081z"/>
	<path d="M2.127,89.101c-1.725,0-2.593,1.82-1.872,3.262c0.345,0.691,1.241,1.371,2.024,1.525C3.241,94.077,4,93.622,4.341,92.716
		c0.148-0.393,0.103-0.849-0.055-1.23C4.446,90.259,3.353,89.101,2.127,89.101z"/>
	<path d="M26.989,28.322c0.839,1.351,2.771,1.351,3.609,0c0.101-0.163,0.202-0.326,0.304-0.489c0.984-1.587-0.295-3.674-2.108-3.674
		s-3.093,2.087-2.108,3.674C26.787,27.996,26.888,28.159,26.989,28.322z"/>
</g>
<g>
</g>
<g>
</g>
<g>
</g>
<g>
</g>
<g>
</g>
<g>
</g>
<g>
</g>
<g>
</g>
<g>
</g>
<g>
</g>
<g>
</g>
<g>
</g>
<g>
</g>
<g>
</g>
<g>
</g>
</svg>
